<svg xmlns="http://www.w3.org/2000/svg" version="1.1" xmlns:xlink="http://www.w3.org/1999/xlink" xmlns:svgjs="http://svgjs.dev/svgjs" width="100%" height="100%" viewBox="0 0 1000 600"><rect width="1000" height="600" x="0" y="0" fill="#282c35"/><g><circle r="166.66666666666666" cx="339.8131968180338" cy="362.0354016288916" fill="#fc5d65" transform="matrix(0.7219320707042222,0,0,0.7219320707042222,0,38.635048663652086)"/><path d="M403.563189442294 332.24373046278026L395.4381896882814 332.24373046278026Q395.22985636125543 319.59492132191815 392.84890405238724 311.26158824087963Q390.49771364737995 302.89849325598027 384.60485668293126 298.7020648116001Q378.71199971848256 294.5353982710808 367.581047674524 294.7437315981068L367.581047674524 294.7437315981068L349.36676251168257 294.7437315981068L349.1584291846566 411.5294423480899Q349.1584291846566 417.33301360095606 349.03938156921316 421.4996801414753Q348.9203339537698 425.6663466819946 348.50366729971785 428.46396564491465L348.50366729971785 428.46396564491465Q352.9977147827065 428.25563231788874 357.4024765541126 428.0472989908627Q361.7774764216578 427.80920375997596 366.3012858085073 427.60087043294993L366.3012858085073 427.60087043294993L366.3012858085073 437.03539395684004L315.94414447594585 437.03539395684004L315.94414447594585 429.9520608379572Q324.0691442299584 429.5353941839053 326.95604890446106 426.11277523990736Q329.8727154828245 422.69015629590933 330.17033452143306 416.79729933146075Q330.49771546390247 410.90444236701205 330.49771546390247 403.6127759211032L330.49771546390247 403.6127759211032L330.7060487909284 294.95206492513273L308.6524780300371 295.1901601560196Q295.1405736772103 295.1901601560196 289.575097655231 304.17825512199687Q284.0096216332517 313.16635008797414 284.0096216332517 332.24373046278026L284.0096216332517 332.24373046278026L276.06319330240416 332.24373046278026L277.37271707228166 287.03539849814615L402.28342757627735 287.03539849814615L403.563189442294 332.24373046278026Z " fill="#f28cab" transform="matrix(0.7219320707042222,0,0,0.7219320707042222,0,38.635048663652086)"/><path d="M705.5761144255065 338.7828303243799L698.1990655290748 338.7828303243799Q698.0099104291663 327.2984135442207 695.8481378587834 319.7322095478804Q693.7133874455303 312.1389833944105 688.3630003338326 308.32885923911056Q683.0126132221349 304.5457572409405 672.9063264555947 304.73491234084895L672.9063264555947 304.73491234084895L656.3687662921654 304.73491234084895L656.1796111922569 410.7698569181309Q656.1796111922569 416.0391775584393 656.0715225637377 419.8222795566094Q655.9634339352186 423.60538155477946 655.5851237354017 426.14546432497946L655.5851237354017 426.14546432497946Q659.6654694619994 425.95630922507087 663.6647487172078 425.7671541251624Q667.6370058152863 425.55097686812405 671.7443736990139 425.3618217682156L671.7443736990139 425.3618217682156L671.7443736990139 433.92784557835785L626.0228838354152 433.92784557835785L626.0228838354152 427.49657218146876Q633.3999327318469 427.1182619816517 636.0210819734363 424.01071391172627Q638.6692533721554 420.90316584180084 638.9394749434532 415.5527787301031Q639.2367186718808 410.2023916184054 639.2367186718808 403.5819631216077L639.2367186718808 403.5819631216077L639.4258737717893 304.9240674407574L619.4024553386176 305.14024469779577Q607.1343960016945 305.14024469779577 602.0812526184244 313.30093615099133Q597.0281092351544 321.4616276041868 597.0281092351544 338.7828303243799L597.0281092351544 338.7828303243799L589.8131932815014 338.7828303243799L591.002168195212 297.7361736442343L704.4141616689257 297.7361736442343L705.5761144255065 338.7828303243799ZM715.7094233491764 433.92784557835785L715.7094233491764 428.09105963832405Q721.7353643891188 428.09105963832405 724.0592699022804 425.064578039788Q726.4101975725719 422.0651185983817 726.7885077723888 416.71473148668395Q727.1938401293356 411.3643443749862 727.1938401293356 404.3656056783715L727.1938401293356 404.3656056783715L727.1938401293356 359.99522367126224Q727.1938401293356 356.8876756013368 727.274906600725 353.7801275314114Q727.3829952292442 350.6455573043561 727.9504605289696 347.3488541345222L727.9504605289696 347.3488541345222Q724.4646022592271 347.53800923443066 721.0598104608741 347.6460978629498Q717.6550186625211 347.72716433433914 714.1421382356489 347.9433415913775L714.1421382356489 347.9433415913775L714.1421382356489 339.94478308096063L720.1680792755911 339.94478308096063Q728.544947985825 339.94478308096063 731.7605846842696 338.29643149604374Q734.9762213827141 336.64807991112673 737.1109717959673 334.70248459778213L737.1109717959673 334.70248459778213L742.7586026360926 334.70248459778213Q743.1369128359097 337.81003266770756 743.3260679358182 342.3767772226414Q743.5152230357266 346.9705439347051 743.7314002927649 353.96928263131986L743.7314002927649 353.96928263131986Q746.6497932627819 349.1052943479583 751.702936646052 344.43046116450523Q756.756080029322 339.75562798105216 763.0792647976921 336.64807991112673Q769.402449566062 333.5405318412013 776.4011882626767 333.5405318412013L776.4011882626767 333.5405318412013Q781.8596640028936 333.5405318412013 785.9400097294913 336.45892481121825Q790.0203554560891 339.3773177812352 790.0203554560891 345.78156902099454L790.0203554560891 345.78156902099454Q790.0203554560891 347.3488541345222 789.0475577994168 349.5916931762945Q788.0747601427445 351.83453221806667 785.9400097294913 353.4828838029837Q783.8052593162382 355.1312353879007 780.292378889366 355.1312353879007L780.292378889366 355.1312353879007Q776.0228780628597 354.9420802879922 773.4827952926598 351.72644358954756Q770.9697346795897 348.510806891103 771.5371999793151 344.24130606459676L771.5371999793151 344.24130606459676Q766.6732116959536 344.0521509646883 761.5119796841644 346.7543666776669Q756.377769829505 349.48360454777526 751.8920917459604 354.26652635974744Q747.4064136624158 359.0224260145899 743.9205553926735 365.4536994114791L743.9205553926735 365.4536994114791L744.1097104925819 413.3099396883308Q744.1097104925819 417.2011303150201 744.0016218640628 420.20058975642644Q743.9205553926735 423.2270713549625 743.3260679358182 426.5237745247964L743.3260679358182 426.5237745247964Q746.4336160057436 426.33461942488793 749.4600976042797 426.25355295349857Q752.4865792028157 426.14546432497946 755.5941272727412 425.95630922507087L755.5941272727412 425.95630922507087L755.5941272727412 433.92784557835785L715.7094233491764 433.92784557835785ZM845.6589769863194 437.0353936482834L845.6589769863194 437.0353936482834Q832.2559870499452 437.0353936482834 821.4471241980307 430.7122088799133Q810.6382613461161 424.38902411154334 804.4231652062653 412.82354085999464Q798.2080690664144 401.2310354513163 798.2080690664144 385.4771178446508L798.2080690664144 385.4771178446508Q798.2080690664144 371.8579506512384 804.3150765777461 359.99522367126224Q810.4491062462076 348.13249669128595 821.5552128265499 340.8365142662436Q832.6342972497623 333.5405318412013 847.226262099847 333.5405318412013L847.226262099847 333.5405318412013Q855.3869535530425 333.5405318412013 862.4937808781763 336.16168108279055Q869.6006082033101 338.7828303243799 875.059083943527 344.13321743607764Q880.490537526614 349.48360454777526 883.5980855965395 357.56322952958146Q886.7326558235948 365.64285451138755 886.7326558235948 376.5327838346915L886.7326558235948 376.5327838346915L818.2314874995861 377.6947365912723Q818.2314874995861 392.47585654126544 821.4471241980307 403.6630295929971Q824.6627608964753 414.8502026447287 831.8506546929984 420.9842323131902Q839.0655706466514 427.1182619816517 850.3338101697724 427.1182619816517L850.3338101697724 427.1182619816517Q856.3597512097148 427.1182619816517 862.6829359780847 424.9835115683986Q869.0061207464548 422.84876115514544 874.4645964866717 419.1467256283647Q879.9230722268885 415.444690101584 883.2197753967225 410.9590120180394L883.2197753967225 410.9590120180394L887.8946085801756 414.8502026447287Q882.6252879398671 423.0379162550539 875.2482390434354 427.9019045384156Q867.844167989874 432.76589282177713 860.0617867364956 434.9006432350302Q852.279405483117 437.0353936482834 845.6589769863194 437.0353936482834ZM818.8259749564414 369.53404513807686L818.8259749564414 369.53404513807686L868.4386554467293 369.53404513807686Q868.4386554467293 362.5353064414621 866.3849715048656 355.9959444160538Q864.3583097201315 349.48360454777526 859.6834765366784 345.29517019265836Q855.0086433532254 341.1337579946713 847.4154171997554 341.1337579946713L847.4154171997554 341.1337579946713Q836.1471776766346 341.1337579946713 828.6350179945539 347.83525296285836Q821.1498804696031 354.5367479310454 818.8259749564414 369.53404513807686ZM943.7223852103143 433.92784557835785L904.026836386658 433.92784557835785L904.026836386658 428.09105963832405Q910.0797995837302 428.09105963832405 912.4037050968918 425.064578039788Q914.7276106100535 422.0651185983817 915.1329429670002 416.71473148668395Q915.5112531668173 411.3643443749862 915.5112531668173 404.3656056783715L915.5112531668173 404.3656056783715L915.7004082667258 359.99522367126224Q915.7004082667258 356.8876756013368 915.8084968952448 353.7801275314114Q915.9165855237641 350.6455573043561 916.4840508234895 347.3488541345222L916.4840508234895 347.3488541345222Q912.9981925537471 347.53800923443066 909.593400755394 347.72716433433914Q906.188608957041 347.9433415913775 902.6757285301687 348.13249669128595L902.6757285301687 348.13249669128595L902.6757285301687 339.94478308096063Q911.241752340311 339.94478308096063 915.6193417953364 339.1881626813266Q919.9969312503617 338.40452012456285 922.1316816636149 337.242567367982Q924.2664320768681 336.05359245427144 925.6445620904872 334.70248459778213L925.6445620904872 334.70248459778213L931.2651707734827 334.70248459778213Q931.4813480305211 336.05359245427144 931.5624145019104 337.81003266770756Q931.6705031304296 339.5664728811437 931.859658230338 341.70122329439675Q932.0488133302465 343.83597370764994 932.0488133302465 346.5652115777584L932.0488133302465 346.5652115777584Q936.3453363138826 342.8631760509776 941.479546168542 339.94478308096063Q946.6407781803312 337.0263901109438 952.3964976489757 335.2969720546374Q958.1251949604905 333.5405318412013 963.7728258006158 333.5405318412013L963.7728258006158 333.5405318412013Q980.6886961638621 333.5405318412013 988.4710774172406 344.13321743607764Q996.2534586706191 354.7529251880836 996.2534586706191 377.1272712915468L996.2534586706191 377.1272712915468L996.2534586706191 413.3099396883308Q996.2534586706191 417.2011303150201 996.1723921992298 420.20058975642644Q996.0643035707105 423.2270713549625 995.4698161138554 426.5237745247964L995.4698161138554 426.5237745247964Q998.6043863409105 426.33461942488793 1001.6038457823169 426.25355295349857Q1004.6303273808529 426.14546432497946 1007.7378754507783 425.95630922507087L1007.7378754507783 425.95630922507087L1007.7378754507783 433.92784557835785L968.0423266271221 433.92784557835785L968.0423266271221 428.09105963832405Q974.0682676670644 428.09105963832405 976.4191953373559 425.064578039788Q978.7431008505175 422.0651185983817 979.1484332074642 416.71473148668395Q979.5267434072814 411.3643443749862 979.5267434072814 404.3656056783715L979.5267434072814 404.3656056783715L979.5267434072814 377.1272712915468Q979.3375883073727 360.3735338710792 973.9872011956751 351.83453221806667Q968.6368140839775 343.2685084079244 957.1523973038181 343.4576635078329L957.1523973038181 343.4576635078329Q950.1536586072034 343.64681860774147 943.4251414818866 347.1596990346137Q936.7236465136996 350.6455573043561 932.2379684301551 356.10403304457293L932.2379684301551 356.10403304457293Q932.4541456871933 357.6713181581006 932.4541456871933 359.6169134714452Q932.4541456871933 361.5625087847899 932.4541456871933 363.69725919804296L932.4541456871933 363.69725919804296L932.2379684301551 413.3099396883308Q932.2379684301551 417.2011303150201 932.1569019587657 420.20058975642644Q932.0488133302465 423.2270713549625 931.4813480305211 426.5237745247964L931.4813480305211 426.5237745247964Q934.5888961004465 426.33461942488793 937.5883555418527 426.25355295349857Q940.6148371403889 426.14546432497946 943.7223852103143 425.95630922507087L943.7223852103143 425.95630922507087L943.7223852103143 433.92784557835785ZM1063.7818293379555 437.0353936482834L1063.7818293379555 437.0353936482834Q1051.8920802008493 437.0353936482834 1042.3802808911646 431.1175412368601Q1032.84145942435 425.1726666683071 1027.3019172127438 414.0935822450946Q1021.7353528440076 402.9874756647524 1021.7353528440076 388.0172006148507L1021.7353528440076 388.0172006148507Q1021.7353528440076 372.047105751147 1028.1666262408971 359.80606857135376Q1034.5978996377862 347.53800923443066 1045.974227789426 340.53927053781604Q1057.3505559410664 333.5405318412013 1071.7533656912424 333.5405318412013L1071.7533656912424 333.5405318412013Q1078.157616931002 333.5405318412013 1084.480801699372 335.1888834261183Q1090.8039864677417 336.8372350110352 1094.5060219945226 338.9719854242884L1094.5060219945226 338.9719854242884L1094.5060219945226 312.328138494319Q1094.5060219945226 309.22059042439355 1094.6141106230416 306.38326392576596Q1094.695177094431 303.5729595842681 1095.100509451378 299.6817689575789L1095.100509451378 299.6817689575789Q1091.587629024506 299.8709240574874 1088.1828372261525 300.0600791573959Q1084.7780454277995 300.2762564144342 1081.292187158057 300.4654115143427L1081.292187158057 300.4654115143427L1081.292187158057 292.27769790401743Q1089.8311888110698 292.27769790401743 1094.5060219945226 291.52107750438336Q1099.180855177976 290.7374349476196 1101.6128493196566 289.57548219103876Q1104.0448434613372 288.3865072773282 1105.3959513178265 287.03539942083887L1105.3959513178265 287.03539942083887L1111.0435821579517 287.03539942083887L1111.0435821579517 413.3099396883308Q1111.0435821579517 416.41748775825624 1110.8544270580433 419.5250358281818Q1110.6652719581348 422.6325838981072 1110.2599396011883 426.5237745247964L1110.2599396011883 426.5237745247964Q1113.7728200280603 426.33461942488793 1117.1776118264133 426.14546432497946Q1120.5824036247664 425.95630922507087 1124.0952840516388 425.7671541251624L1124.0952840516388 425.7671541251624L1124.0952840516388 433.92784557835785L1096.2624622079588 433.92784557835785Q1095.6679747511034 431.009452608341 1095.3977531798055 428.57745846666023Q1095.100509451378 426.14546432497946 1094.9113543514695 423.8215588118178L1094.9113543514695 423.8215588118178Q1089.4528786112523 429.8474998517602 1081.4813422579655 433.4414467500218Q1073.5098059046786 437.0353936482834 1063.7818293379555 437.0353936482834ZM1070.78056803457 427.49657218146876L1070.78056803457 427.49657218146876Q1077.1848192743296 427.49657218146876 1083.7241812997381 423.8215588118178Q1090.2365211680167 420.1195232850371 1094.5060219945226 414.6610475448201L1094.5060219945226 414.6610475448201Q1094.3168668946141 412.3371420316586 1094.3168668946141 409.7159927900692Q1094.3168668946141 407.0678213913502 1094.3168668946141 403.9602733214248L1094.3168668946141 403.9602733214248L1094.5060219945226 347.9433415913775Q1089.8311888110698 344.43046116450523 1084.2916465994635 342.7821095795882Q1078.7521043878573 341.1337579946713 1072.9153184478232 341.1337579946713L1072.9153184478232 341.1337579946713Q1063.1873418811 341.1337579946713 1055.9994480845771 346.7543666776669Q1048.7845321309242 352.4019975177922 1045.0824966041432 362.5353064414621Q1041.4074832344922 372.6415932080023 1041.7857934343092 386.2607604014146L1041.7857934343092 386.2607604014146Q1042.1641036341261 398.1234873813909 1045.5688954324796 407.473153748297Q1048.9736872308326 416.7957979580733 1055.2968719992027 422.14618506977104Q1061.6200567675728 427.49657218146876 1070.78056803457 427.49657218146876ZM1178.35577556825 437.0353936482834L1178.35577556825 437.0353936482834Q1168.627799001527 437.0353936482834 1161.0615950051865 434.414244406694Q1153.4683688517166 431.7930951651048 1148.6043805683548 428.469369838141L1148.6043805683548 428.469369838141L1149.3880231251187 435.27895343484727L1141.2003095147934 435.27895343484727L1140.0383567582126 401.8255229081716L1146.0642977981552 401.8255229081716Q1146.469630155102 409.79705926145857 1150.5499758816995 416.12024402982865Q1154.6303216082974 422.4434287981986 1161.0615950051865 425.95630922507087Q1167.465846244946 429.44216749481336 1174.8699172985075 429.44216749481336L1174.8699172985075 429.44216749481336Q1179.9230606817778 429.44216749481336 1184.787048965139 427.79381590989635Q1189.6510372485004 426.14546432497946 1192.9477404183344 422.7406725266263Q1196.2714657452984 419.3358807282732 1196.2714657452984 414.0935822450946L1196.2714657452984 414.0935822450946Q1196.2714657452984 408.63510650487774 1193.055829046854 405.04115960661625Q1189.8401923484093 401.44721270835464 1184.5978938652306 398.71797483824616Q1179.3285732249224 395.9887369681377 1173.3026321849798 393.66483145497614L1173.3026321849798 393.66483145497614Q1167.465846244946 391.3139037846847 1161.629060304912 388.8008431716146Q1155.7922743648783 386.2607604014146 1150.8472196101275 382.74787997454234Q1145.8751426982467 379.26202170479996 1142.9567497282296 374.20887832152994Q1140.0383567582126 369.12871278113005 1140.0383567582126 361.75166388469836L1140.0383567582126 361.75166388469836Q1140.0383567582126 357.6713181581006 1141.6056418717403 352.807329874739Q1143.145904828138 347.9433415913775 1146.847940354919 343.5657521363521Q1150.5499758816995 339.1881626813266 1156.954227121459 336.35083618269914Q1163.3855005183482 333.5405318412013 1173.3026321849798 333.5405318412013L1173.3026321849798 333.5405318412013Q1178.571952825288 333.5405318412013 1184.9762040650476 335.2969720546374Q1191.4074774619367 337.0263901109438 1197.4334185018793 341.89037839430534L1197.4334185018793 341.89037839430534L1197.0551083020623 334.51332949787366L1205.2157997552576 334.51332949787366L1205.2157997552576 368.5612474814045L1199.000703615407 368.5612474814045Q1198.59537125846 361.75166388469836 1195.8661333883515 355.4284791163283Q1193.1639176753729 349.1052943479583 1187.8945970350646 344.9168599928414Q1182.652298551886 340.7284256377245 1174.275429841652 340.7284256377245L1174.275429841652 340.7284256377245Q1165.331095831693 340.7284256377245 1160.2779524484226 345.214103721269Q1155.2248090651528 349.67275964768385 1155.2248090651528 355.50954558771764L1155.2248090651528 355.50954558771764Q1155.2248090651528 361.5625087847899 1159.0079110633228 365.53476588286844Q1162.7910130614928 369.53404513807686 1168.843976258565 372.4524381080938Q1174.8699172985075 375.37083107811065 1181.6795008952136 378.10006894821913L1181.6795008952136 378.10006894821913Q1189.0565497916455 381.20761701814456 1196.08231064539 384.9096525449253Q1203.0810493420045 388.58466591457625 1207.5397052684193 394.1512302833123Q1212.0253833519637 399.6907724949185 1212.0253833519637 408.44595140496926L1212.0253833519637 408.44595140496926Q1212.0253833519637 418.17392797169236 1207.0533064400834 424.5781792114518Q1202.108251685332 431.009452608341 1194.4069369033432 434.0359342068771Q1186.7326442784838 437.0353936482834 1178.35577556825 437.0353936482834Z " fill="#f28cab" transform="matrix(0.7219320707042222,0,0,0.7219320707042222,0,38.635048663652086)"/></g></svg>